<?xml version="1.0" encoding="UTF-8"?>
<!DOCTYPE svg PUBLIC "-//W3C//DTD SVG 1.1//EN" "http://www.w3.org/Graphics/SVG/1.1/DTD/svg11.dtd">
<!-- Creator: CorelDRAW -->
<svg xmlns="http://www.w3.org/2000/svg" xml:space="preserve" width="2.83333in" height="2.83333in" version="1.1" style="shape-rendering:geometricPrecision; text-rendering:geometricPrecision; image-rendering:optimizeQuality; fill-rule:evenodd; clip-rule:evenodd"
viewBox="0 0 2833 2833"
 xmlns:xlink="http://www.w3.org/1999/xlink">
 <defs>
  <style type="text/css">
   <![CDATA[
    .fil4 {fill:black}
    .fil1 {fill:#00233F}
    .fil2 {fill:#1A3952}
    .fil5 {fill:#1CD3C5}
    .fil3 {fill:#1FEADB}
    .fil11 {fill:#49A7FE}
    .fil7 {fill:#707487}
    .fil9 {fill:#7ED63F}
    .fil12 {fill:#C2C8D5}
    .fil6 {fill:#D7DEED}
    .fil8 {fill:#DF5A49}
    .fil10 {fill:#FF5100}
    .fil0 {fill:#FFF0A7}
   ]]>
  </style>
 </defs>
 <g id="Layer_x0020_1">
  <metadata id="CorelCorpID_0Corel-Layer"/>
  <circle class="fil0" cx="1417" cy="1417" r="1417"/>
  <g id="_534174864">
   <path class="fil1" d="M1600 1967c-11,0 -21,-7 -24,-18l-320 0c-3,11 -13,18 -23,18 -14,0 -25,-11 -25,-25l0 -237c0,-14 11,-25 25,-25 12,0 22,9 24,20l319 0c2,-11 12,-20 24,-20 14,0 25,11 25,25l0 237c0,14 -11,25 -25,25z"/>
   <path class="fil2" d="M1208 1764l0 -59c0,-14 11,-25 25,-25 12,0 22,9 24,20l319 0c2,-11 12,-20 24,-20 14,0 25,11 25,25l0 59 -417 0z"/>
   <path class="fil1" d="M2245 1729l-1657 0c-14,0 -25,-11 -25,-25l0 -1000c0,-14 11,-25 25,-25l1657 0c14,0 25,11 25,25l0 1000c-1,14 -12,25 -25,25z"/>
   <path class="fil3" d="M2130 1626l-1428 0c-14,0 -25,-11 -25,-25l0 -793c0,-14 11,-24 25,-24l1427 0c13,0 25,12 25,24l0 793c0,14 -12,25 -24,25z"/>
   <polygon class="fil4" points="1896,2034 1896,2034 "/>
   <path class="fil1" d="M1416 2154c-21,0 -527,-1 -527,-120 0,-120 505,-121 527,-121 22,0 527,1 527,121 0,119 -505,120 -527,120z"/>
   <path class="fil5" d="M2154 1601l0 -793c0,-12 -12,-24 -25,-24l-599 0 -226 842 826 0c12,0 24,-11 24,-25z"/>
  </g>
  <g id="_534182856">
   <g>
    <path class="fil6" d="M1698 1501c-92,0 -178,-47 -228,-123l-106 0c-49,76 -136,123 -227,123 -150,0 -272,-122 -272,-272 0,-149 122,-271 272,-271l560 0c149,0 271,122 271,271 0,151 -121,272 -270,272z"/>
    <path class="fil7" d="M1153 1356l-75 0c-9,0 -16,-7 -16,-16l0 -58 -56 0c-9,0 -16,-7 -16,-16l0 -73c0,-9 7,-16 16,-16l56 0 0 -57c0,-9 7,-16 16,-16l75 0c9,0 16,7 16,16l0 57 56 0c9,0 16,7 16,16l0 73c0,9 -7,16 -16,16l-56 0 0 58c-1,9 -7,16 -16,16z"/>
    <path class="fil8" d="M1709 1201c-29,0 -53,-24 -53,-53 0,-30 25,-53 53,-53 29,0 53,24 53,53 0,29 -24,53 -53,53z"/>
    <path class="fil9" d="M1709 1365c-29,0 -53,-24 -53,-53 0,-30 25,-53 53,-53 29,0 53,24 53,53 0,29 -24,53 -53,53z"/>
    <path class="fil10" d="M1792 1283c-30,0 -53,-24 -53,-53 0,-29 24,-53 53,-53 29,0 53,25 53,53 0,29 -25,53 -53,53z"/>
    <path class="fil11" d="M1627 1283c-30,0 -53,-24 -53,-53 0,-29 24,-53 53,-53 29,0 53,25 53,53 0,29 -24,53 -53,53z"/>
    <path class="fil7" d="M1471 1289l-108 0c-9,0 -16,-8 -16,-17l0 -51c0,-9 7,-16 16,-16l108 0c9,0 16,7 16,16l0 51c0,9 -7,17 -16,17z"/>
   </g>
   <path class="fil12" d="M1313 918l0 40 47 0 109 0 50 0 2 -1 0 -39c0,-14 -11,-25 -25,-25l-158 0c-14,0 -25,11 -25,25z"/>
  </g>
 </g>
</svg>
